<svg width="34" height="22" viewBox="0 0 34 22" fill="none" xmlns="http://www.w3.org/2000/svg">
<mask id="mask0_139_196" style="mask-type:alpha" maskUnits="userSpaceOnUse" x="8" y="2" width="18" height="18">
<rect x="8.5" y="2.5" width="17" height="17" fill="#D9D9D9"/>
</mask>
<g mask="url(#mask0_139_196)">
<path d="M14.1667 17.375V15.9583H15.5834V14.5417H11.3334C10.9438 14.5417 10.6103 14.403 10.3329 14.1255C10.0555 13.8481 9.91675 13.5146 9.91675 13.125V6.04167C9.91675 5.65208 10.0555 5.31858 10.3329 5.04115C10.6103 4.76372 10.9438 4.625 11.3334 4.625H22.6667C23.0563 4.625 23.3898 4.76372 23.6673 5.04115C23.9447 5.31858 24.0834 5.65208 24.0834 6.04167V13.125C24.0834 13.5146 23.9447 13.8481 23.6673 14.1255C23.3898 14.403 23.0563 14.5417 22.6667 14.5417H18.4167V15.9583H19.8334V17.375H14.1667ZM11.3334 13.125H22.6667V6.04167H11.3334V13.125Z" fill="white"/>
</g>
</svg>
