<svg width="34" height="22" viewBox="0 0 34 22" fill="none" xmlns="http://www.w3.org/2000/svg">
<mask id="mask0_139_192" style="mask-type:alpha" maskUnits="userSpaceOnUse" x="8" y="2" width="18" height="18">
<rect x="8.5" y="2.5" width="17" height="17" fill="#D9D9D9"/>
</mask>
<g mask="url(#mask0_139_192)">
<path d="M17.0709 18.0833C16.0792 18.0833 15.1496 17.8944 14.2819 17.5167C13.4141 17.1389 12.6586 16.6283 12.0152 15.9849C11.3718 15.3415 10.8612 14.5859 10.4834 13.7182C10.1056 12.8505 9.91675 11.9208 9.91675 10.9292C9.91675 9.20555 10.4657 7.68558 11.5636 6.36926C12.6615 5.05294 14.0605 4.23541 15.7605 3.91666C15.548 5.08541 15.6129 6.22759 15.9553 7.34322C16.2977 8.45884 16.8879 9.43575 17.7261 10.2739C18.5643 11.1121 19.5412 11.7024 20.6569 12.0448C21.7725 12.3871 22.9147 12.4521 24.0834 12.2396C23.7765 13.9396 22.9619 15.3385 21.6397 16.4365C20.3174 17.5344 18.7945 18.0833 17.0709 18.0833ZM17.0709 16.6667C18.1098 16.6667 19.072 16.4069 19.9574 15.8875C20.8428 15.368 21.5393 14.6538 22.047 13.7448C21.0317 13.6503 20.0695 13.3936 19.1605 12.9745C18.2515 12.5554 17.4369 11.9858 16.7167 11.2656C15.9966 10.5455 15.424 9.73089 14.999 8.82187C14.574 7.91284 14.3202 6.95068 14.2376 5.93541C13.3286 6.44305 12.6173 7.14252 12.1037 8.03384C11.5902 8.92516 11.3334 9.89027 11.3334 10.9292C11.3334 12.5229 11.8912 13.8776 13.0069 14.9932C14.1225 16.1088 15.4772 16.6667 17.0709 16.6667Z" fill="white"/>
</g>
</svg>
