<svg width="72" height="72" viewBox="0 0 72 72" fill="none" xmlns="http://www.w3.org/2000/svg">
<mask id="mask0_206_98" style="mask-type:alpha" maskUnits="userSpaceOnUse" x="0" y="0" width="72" height="72">
<rect width="71.3322" height="71.3322" fill="#D9D9D9"/>
</mask>
<g mask="url(#mask0_206_98)">
<path d="M33.9801 59.7465V36.6148L13.7753 24.9371V47.5546C13.7753 47.7072 13.8132 47.8501 13.8889 47.9834C13.9652 48.1166 14.0797 48.2308 14.2322 48.3259L33.9801 59.7465ZM37.352 59.7465L57.0999 48.3259C57.2525 48.2308 57.3669 48.1166 57.4432 47.9834C57.519 47.8501 57.5569 47.7072 57.5569 47.5546V24.8918L37.352 36.6029V59.7465ZM35.6661 33.7682L55.6027 22.1656L36.123 10.8943C35.971 10.818 35.8186 10.7799 35.6661 10.7799C35.5135 10.7799 35.3612 10.818 35.2091 10.8943L15.6841 22.1656L35.6661 33.7682ZM12.5463 51.2468C11.8592 50.8485 11.3302 50.3175 10.9591 49.6537C10.5881 48.9899 10.4026 48.2806 10.4026 47.5256V23.8062C10.4026 23.0513 10.5881 22.3419 10.9591 21.6781C11.3302 21.0143 11.8592 20.4833 12.5463 20.085L33.5224 7.97343C34.2134 7.59596 34.9319 7.40723 35.678 7.40723C36.4245 7.40723 37.1351 7.59596 37.8098 7.97343L58.7859 20.085C59.4729 20.4833 60.002 21.0143 60.373 21.6781C60.744 22.3419 60.9296 23.0513 60.9296 23.8062V47.5256C60.9296 48.2806 60.744 48.9899 60.373 49.6537C60.002 50.3175 59.4729 50.8485 58.7859 51.2468L37.8098 63.3584C37.1187 63.7359 36.4002 63.9246 35.6542 63.9246C34.9077 63.9246 34.1971 63.7359 33.5224 63.3584L12.5463 51.2468Z" fill="#1F4A44"/>
</g>
</svg>
