<svg width="1000" height="401" viewBox="0 0 1000 401" fill="none" xmlns="http://www.w3.org/2000/svg">
<g clip-path="url(#clip0_223_116)">
<path d="M633.078 212.533C587.639 214.023 559.406 222.222 559.406 252.152C559.406 271.528 574.854 292.534 614.07 292.534C666.647 292.534 694.712 263.875 694.712 216.871L694.715 211.701C676.282 211.701 653.551 211.861 633.078 212.533ZM744.829 274.636C744.829 289.219 745.251 303.614 746.523 316.577H699.909C698.666 305.903 698.212 295.297 698.212 285.01C673.01 315.989 643.034 324.895 601.45 324.895C539.774 324.895 506.75 292.296 506.75 254.589C506.75 199.976 551.665 180.721 629.64 178.935C650.963 178.448 674.914 178.376 694.715 178.376L694.712 173.04C694.712 136.479 671.268 121.446 630.644 121.446C600.486 121.446 578.259 133.927 575.968 155.493H523.316C528.888 101.721 585.383 88.1219 635.056 88.1219C694.565 88.1219 744.829 109.295 744.829 172.237L744.829 274.636Z" fill="#FFBC13"/>
<path d="M199.636 185.866C197.692 138.989 163.857 121.446 127.695 121.446C88.7007 121.446 57.5683 141.179 52.1147 185.866H199.636ZM51.0344 219.191C53.7387 264.675 85.1042 291.575 128.232 291.575C158.112 291.575 184.692 279.4 193.591 252.915H245.276C235.224 306.655 178.122 324.895 128.973 324.895C39.6064 324.895 0 275.679 0 209.307C0 136.242 40.9656 88.1219 129.788 88.1219C200.487 88.1219 252.288 125.121 252.288 205.878V219.191H51.0344Z" fill="#F12C2D"/>
<path d="M380.832 290.624C427.404 290.624 459.273 257.102 459.273 206.515C459.273 155.933 427.404 122.406 380.832 122.406C334.521 122.406 302.388 155.933 302.388 206.515C302.388 257.102 334.521 290.624 380.832 290.624ZM252.285 0H302.388L302.383 125.877C326.94 96.6173 360.772 88.1219 394.073 88.1219C449.908 88.1219 511.924 125.799 511.924 207.151C511.924 275.273 462.602 324.895 393.143 324.895C356.786 324.895 322.562 311.853 301.456 286.013C301.456 296.334 300.88 306.736 299.751 316.577H250.58C251.435 300.667 252.285 280.858 252.285 264.83L252.285 0Z" fill="#0968F6"/>
<path d="M1000 96.4575L845.055 400.751H788.949L833.496 316.256L716.89 96.4575H775.517L861.321 268.188L946.884 96.4575H1000Z" fill="#93C822"/>
</g>
<defs>
<clipPath id="clip0_223_116">
<rect width="1000" height="400.751" fill="white"/>
</clipPath>
</defs>
</svg>
