<svg width="42" height="42" viewBox="0 0 42 42" fill="none" xmlns="http://www.w3.org/2000/svg">
<g clip-path="url(#clip0_245_183)">
<path d="M20.917 0.464844C32.2122 0.464988 41.3691 9.62174 41.3691 20.917C41.369 32.2121 32.2121 41.369 20.917 41.3691C9.62174 41.3691 0.464988 32.2122 0.464844 20.917C0.464844 9.62165 9.62165 0.464844 20.917 0.464844Z" fill="white" stroke="#7BB5AD" stroke-width="0.929408"/>
<g clip-path="url(#clip1_245_183)">
<path d="M25.1578 21.4248C23.5675 21.4769 22.5793 21.7633 22.5793 22.8089C22.5793 23.4858 23.12 24.2196 24.4925 24.2196C26.3327 24.2196 27.315 23.2184 27.315 21.5764L27.3151 21.3958C26.67 21.3958 25.8744 21.4014 25.1578 21.4248ZM29.0691 23.5944C29.0691 24.1038 29.0839 24.6067 29.1284 25.0595H27.4969C27.4534 24.6867 27.4375 24.3162 27.4375 23.9568C26.5554 25.039 25.5063 25.3502 24.0509 25.3502C21.8922 25.3502 20.7363 24.2113 20.7363 22.894C20.7363 20.9862 22.3084 20.3135 25.0375 20.2511C25.7838 20.2341 26.6221 20.2316 27.3151 20.2316L27.315 20.0452C27.315 18.7679 26.4945 18.2428 25.0726 18.2428C24.0171 18.2428 23.2391 18.6788 23.159 19.4322H21.3162C21.5112 17.5537 23.4885 17.0786 25.2271 17.0786C27.3099 17.0786 29.0691 17.8183 29.0691 20.0171L29.0691 23.5944Z" fill="#2B655D"/>
<path d="M9.98727 20.4932C9.91922 18.8556 8.73499 18.2428 7.46932 18.2428C6.10453 18.2428 5.01489 18.9321 4.82401 20.4932H9.98727ZM4.7862 21.6574C4.88086 23.2464 5.97865 24.1861 7.48812 24.1861C8.53393 24.1861 9.46421 23.7608 9.7757 22.8356H11.5846C11.2328 24.7129 9.23426 25.3502 7.51404 25.3502C4.38622 25.3502 3 23.6308 3 21.3121C3 18.7597 4.4338 17.0786 7.54258 17.0786C10.017 17.0786 11.8301 18.3712 11.8301 21.1923V21.6574H4.7862Z" fill="#2B655D"/>
<path d="M16.3293 24.1528C17.9594 24.1528 19.0748 22.9817 19.0748 21.2145C19.0748 19.4474 17.9594 18.2762 16.3293 18.2762C14.7085 18.2762 13.5838 19.4474 13.5838 21.2145C13.5838 22.9817 14.7085 24.1528 16.3293 24.1528ZM11.8302 14H13.5838L13.5836 18.3974C14.4431 17.3753 15.6272 17.0785 16.7928 17.0785C18.747 17.0785 20.9176 18.3947 20.9176 21.2367C20.9176 23.6165 19.1913 25.35 16.7602 25.35C15.4877 25.35 14.2899 24.8944 13.5512 23.9917C13.5512 24.3522 13.531 24.7156 13.4915 25.0594H11.7705C11.8004 24.5036 11.8302 23.8116 11.8302 23.2517L11.8302 14Z" fill="#2B655D"/>
<path d="M38.0001 17.3696L32.5771 27.9999H30.6134L32.1725 25.0482L28.0913 17.3696H30.1432L33.1464 23.3689L36.1411 17.3696H38.0001Z" fill="#2B655D"/>
</g>
</g>
<defs>
<clipPath id="clip0_245_183">
<rect width="41.8334" height="41.8334" fill="white"/>
</clipPath>
<clipPath id="clip1_245_183">
<rect width="35" height="14" fill="white" transform="translate(3 14)"/>
</clipPath>
</defs>
</svg>
