<svg width="1778" height="401" viewBox="0 0 1778 401" fill="none" xmlns="http://www.w3.org/2000/svg">
<path d="M1022.08 212.533C976.639 214.022 948.406 222.222 948.406 252.152C948.406 271.528 963.854 292.534 1003.07 292.534C1055.65 292.534 1083.71 263.875 1083.71 216.87L1083.72 211.7C1065.28 211.7 1042.55 211.861 1022.08 212.533ZM1133.83 274.636C1133.83 289.219 1134.25 303.614 1135.52 316.577H1088.91C1087.67 305.903 1087.21 295.297 1087.21 285.01C1062.01 315.989 1032.03 324.895 990.45 324.895C928.774 324.895 895.75 292.296 895.75 254.588C895.75 199.976 940.665 180.721 1018.64 178.935C1039.96 178.448 1063.91 178.376 1083.71 178.376L1083.71 173.04C1083.71 136.479 1060.27 121.446 1019.64 121.446C989.486 121.446 967.259 133.927 964.968 155.493H912.316C917.888 101.721 974.383 88.1218 1024.06 88.1218C1083.56 88.1218 1133.83 109.295 1133.83 172.237L1133.83 274.636Z" fill="#FFBC13"/>
<path d="M588.636 185.866C586.692 138.989 552.857 121.446 516.695 121.446C477.701 121.446 446.568 141.179 441.115 185.866H588.636ZM440.034 219.191C442.739 264.674 474.104 291.575 517.232 291.575C547.112 291.575 573.692 279.4 582.591 252.915H634.276C624.224 306.655 567.122 324.895 517.973 324.895C428.606 324.895 389 275.679 389 209.306C389 136.242 429.966 88.1218 518.788 88.1218C589.487 88.1218 641.288 125.121 641.288 205.878V219.191H440.034Z" fill="#F12C2D"/>
<path d="M769.832 290.624C816.404 290.624 848.273 257.102 848.273 206.515C848.273 155.933 816.404 122.406 769.832 122.406C723.521 122.406 691.388 155.933 691.388 206.515C691.388 257.102 723.521 290.624 769.832 290.624ZM641.285 0H691.388L691.383 125.877C715.94 96.6173 749.772 88.1219 783.073 88.1219C838.908 88.1219 900.924 125.799 900.924 207.151C900.924 275.273 851.602 324.895 782.143 324.895C745.786 324.895 711.562 311.853 690.456 286.013C690.456 296.334 689.88 306.736 688.751 316.577H639.58C640.435 300.667 641.285 280.858 641.285 264.83L641.285 0Z" fill="#0968F6"/>
<path d="M1389 96.4575L1234.06 400.751H1177.95L1222.5 316.256L1105.89 96.4575H1164.52L1250.32 268.188L1335.88 96.4575H1389Z" fill="#93C822"/>
</svg>
