<svg width="42" height="42" viewBox="0 0 42 42" fill="none" xmlns="http://www.w3.org/2000/svg">
<g clip-path="url(#clip0_245_198)">
<path d="M20.917 0.464844C32.2122 0.464988 41.3691 9.62174 41.3691 20.917C41.369 32.2121 32.2121 41.369 20.917 41.3691C9.62174 41.3691 0.464988 32.2122 0.464844 20.917C0.464844 9.62165 9.62165 0.464844 20.917 0.464844Z" fill="white" stroke="#7BB5AD" stroke-width="0.929408"/>
<path d="M16.3307 9.91923C15.1524 9.97483 14.3478 10.1629 13.6444 10.4393C12.9164 10.723 12.2994 11.1037 11.6855 11.7198C11.0716 12.336 10.6935 12.9534 10.4118 13.6825C10.1392 14.3874 9.95446 15.1927 9.9024 16.3716C9.85036 17.5505 9.83885 17.9294 9.84461 20.9365C9.85036 23.9437 9.86364 24.3206 9.92079 25.502C9.97705 26.68 10.1644 27.4845 10.4408 28.1881C10.725 28.916 11.1052 29.5328 11.7216 30.147C12.3379 30.7611 12.955 31.1382 13.6858 31.4204C14.3901 31.6925 15.1956 31.8782 16.3743 31.9297C17.553 31.9814 17.9324 31.9933 20.9386 31.9876C23.945 31.9818 24.3234 31.9686 25.5045 31.9125C26.6857 31.8565 27.4858 31.6678 28.1896 31.3928C28.9177 31.1079 29.535 30.7282 30.1487 30.1118C30.7624 29.4952 31.1401 28.8773 31.4217 28.1477C31.6944 27.4435 31.88 26.638 31.931 25.4601C31.9827 24.2781 31.9948 23.9008 31.9891 20.8941C31.9833 17.8874 31.9699 17.5104 31.9138 16.3295C31.8578 15.1486 31.6702 14.3467 31.3941 13.6426C31.1094 12.9147 30.7295 12.2983 30.1133 11.6837C29.4973 11.0691 28.8788 10.6915 28.1497 10.4107C27.4448 10.1381 26.6399 9.95224 25.4612 9.90131C24.2824 9.85036 23.9032 9.8373 20.8957 9.84306C17.8883 9.84881 17.5118 9.86165 16.3307 9.91923ZM16.46 29.9376C15.3803 29.8907 14.7941 29.7113 14.4034 29.5611C13.8861 29.3617 13.5175 29.1208 13.1282 28.7353C12.7388 28.3498 12.4996 27.9798 12.2976 27.4636C12.1459 27.0728 11.9632 26.4874 11.9127 25.4076C11.8578 24.2407 11.8463 23.8903 11.8399 20.934C11.8334 17.9775 11.8447 17.6276 11.8959 16.4602C11.9419 15.3814 12.1225 14.7945 12.2724 14.4041C12.4717 13.886 12.7118 13.5182 13.0983 13.129C13.4847 12.7399 13.8535 12.5003 14.3702 12.2983C14.7604 12.1459 15.346 11.9648 16.4252 11.9134C17.5931 11.858 17.943 11.8469 20.899 11.8405C23.855 11.8341 24.2058 11.8452 25.374 11.8965C26.4529 11.9435 27.04 12.1222 27.4301 12.2731C27.9476 12.4724 28.316 12.7118 28.705 13.0989C29.0943 13.4861 29.334 13.8535 29.536 14.3713C29.6887 14.7604 29.8699 15.3457 29.9207 16.4257C29.9763 17.5935 29.9889 17.9436 29.9943 20.8994C29.9995 23.8552 29.9891 24.2062 29.938 25.3731C29.8908 26.4529 29.7119 27.0392 29.5615 27.4303C29.3622 27.9476 29.1219 28.3163 28.7351 28.7052C28.3486 29.094 27.9802 29.3337 27.4632 29.5358C27.0735 29.6878 26.4872 29.8694 25.409 29.9208C24.241 29.9756 23.891 29.9872 20.934 29.9936C17.9769 30.0001 17.6279 29.9882 16.46 29.9376ZM25.4876 14.9969C25.488 15.2598 25.5662 15.5166 25.7127 15.7349C25.8591 15.9531 26.067 16.1231 26.31 16.2233C26.5529 16.3234 26.8202 16.3493 27.0779 16.2975C27.3356 16.2458 27.5722 16.1188 27.7577 15.9326C27.9432 15.7464 28.0693 15.5094 28.1202 15.2515C28.171 14.9936 28.144 14.7265 28.043 14.4838C27.942 14.2412 27.7713 14.034 27.5525 13.8884C27.3337 13.7428 27.0764 13.6654 26.8137 13.6659C26.4613 13.6666 26.1237 13.8072 25.875 14.0568C25.6263 14.3064 25.487 14.6446 25.4876 14.9969ZM15.2311 20.9264C15.2373 24.0669 17.7878 26.607 20.9275 26.6009C24.0674 26.5949 26.6092 24.0447 26.6033 20.9043C26.5972 17.7638 24.0462 15.223 20.9059 15.2293C17.7656 15.2354 15.2251 17.7864 15.2311 20.9264ZM17.2257 20.9225C17.2242 20.1924 17.4393 19.4783 17.8437 18.8704C18.2481 18.2626 18.8237 17.7883 19.4976 17.5076C20.1715 17.2269 20.9136 17.1523 21.6299 17.2933C22.3463 17.4344 23.0046 17.7846 23.5218 18.2998C24.0391 18.815 24.392 19.472 24.5359 20.1878C24.6798 20.9036 24.608 21.646 24.3301 22.321C24.0521 22.9959 23.58 23.5735 22.9738 23.9803C22.3677 24.3871 21.6544 24.6049 20.9242 24.6063C20.4395 24.6074 19.9593 24.5128 19.511 24.3283C19.0628 24.1437 18.6553 23.8726 18.3118 23.5306C17.9684 23.1884 17.6957 22.782 17.5093 22.3346C17.3229 21.8869 17.2266 21.4071 17.2257 20.9225Z" fill="#2B655D"/>
</g>
<defs>
<clipPath id="clip0_245_198">
<rect width="41.8334" height="41.8334" fill="white"/>
</clipPath>
</defs>
</svg>
