<svg width="1778" height="389" viewBox="0 0 1778 389" fill="none" xmlns="http://www.w3.org/2000/svg">
<path d="M274.513 1.35197C246.471 13.1091 215.644 46.2826 205.908 87.9542C193.577 140.737 244.889 163.058 249.098 155.751C254.051 147.149 239.903 144.24 236.991 116.853C233.227 81.4802 249.658 41.955 270.339 24.6124C274.183 21.3904 273.998 25.8749 273.998 34.17C273.998 49.0061 273.18 182.166 273.18 209.96C273.18 247.564 271.628 259.439 268.84 271.171C266.015 283.062 261.477 291.096 264.915 294.194C268.759 297.656 285.169 289.421 294.67 276.149C306.062 260.233 310.049 241.118 310.766 220.36C311.631 195.336 311.594 155.628 311.631 132.979C311.665 112.207 311.979 51.381 311.266 14.8148C311.093 5.84573 286.241 -3.56415 274.513 1.35197ZM1567.85 198.906C1563.78 198.906 1561.93 203.102 1560.39 210.167C1555.06 234.732 1549.47 240.276 1542.25 240.276C1534.18 240.276 1526.93 228.112 1525.07 203.767C1523.6 184.624 1523.84 149.378 1525.71 114.321C1526.09 107.118 1524.11 99.9907 1504.8 92.9719C1496.5 89.9507 1484.42 85.5077 1478.41 100.032C1461.43 141.067 1454.78 173.647 1453.22 186.877C1453.14 187.562 1452.3 187.701 1452.15 186.101C1451.15 175.503 1448.92 156.24 1448.65 115.773C1448.59 107.877 1446.92 101.156 1438.21 95.6539C1432.57 92.081 1415.41 85.7685 1409.23 93.2812C1403.88 99.4252 1397.68 115.96 1391.24 135.56C1386 151.488 1382.36 162.264 1382.36 162.264C1382.36 162.264 1382.42 119.281 1382.49 102.977C1382.52 96.8263 1378.3 94.7745 1377.03 94.4052C1371.31 92.7434 1360.04 89.9669 1355.26 89.9669C1349.35 89.9669 1347.9 93.2697 1347.9 98.0819C1347.9 98.712 1346.97 154.673 1346.97 193.803C1346.97 195.502 1346.97 197.358 1346.98 199.329C1343.72 217.313 1333.13 241.727 1321.61 241.727C1310.08 241.727 1304.64 231.521 1304.64 184.871C1304.64 157.659 1305.46 145.824 1305.86 126.143C1306.09 114.806 1306.54 106.098 1306.51 104.124C1306.43 98.0658 1295.96 95.0122 1291.09 93.8813C1286.2 92.7457 1281.95 92.3026 1278.63 92.4918C1273.93 92.7573 1270.6 95.8431 1270.6 100.088C1270.6 102.363 1270.63 106.689 1270.63 106.689C1264.57 97.1679 1254.84 90.5415 1248.36 88.6213C1230.91 83.4374 1212.71 88.0327 1198.97 107.263C1188.06 122.545 1181.48 139.855 1178.89 164.722C1177 182.9 1177.62 201.337 1180.98 216.927C1176.92 234.519 1169.37 241.727 1161.1 241.727C1149.1 241.727 1140.41 222.128 1141.42 188.227C1142.08 165.929 1146.54 150.283 1151.41 127.646C1153.49 117.993 1151.8 112.943 1147.57 108.101C1143.68 103.658 1135.41 101.392 1123.52 104.182C1115.04 106.169 1102.93 108.311 1091.85 109.954C1091.85 109.954 1092.52 107.284 1093.07 102.576C1095.95 77.8843 1069.14 79.8876 1060.59 87.7742C1055.48 92.4826 1052.01 98.0358 1050.69 108.02C1048.6 123.863 1061.5 131.338 1061.5 131.338C1057.27 150.749 1046.88 176.101 1036.17 194.431C1030.42 204.252 1026.03 211.529 1020.36 219.266C1020.34 216.39 1020.32 213.514 1020.31 210.638C1020.18 169.834 1020.73 137.72 1020.96 126.145C1021.2 114.808 1021.65 106.333 1021.63 104.36C1021.56 99.9283 1018.98 98.2527 1013.6 96.1362C1008.85 94.2621 1003.22 92.965 997.392 92.5126C990.034 91.9402 985.597 95.8454 985.714 100.466C985.737 101.339 985.737 106.696 985.737 106.696C979.684 97.1749 969.945 90.5485 963.47 88.6282C946.023 83.4443 927.816 88.0396 914.084 107.27C903.172 122.552 896.025 143.996 894.001 164.537C892.114 183.682 892.463 199.952 895.034 213.657C892.26 227.381 884.283 241.732 875.264 241.732C863.734 241.732 857.173 231.526 857.173 184.876C857.173 157.664 857.99 145.831 858.388 126.148C858.624 114.811 859.073 106.102 859.046 104.129C858.96 98.0704 848.493 95.0168 843.623 93.8859C838.527 92.7042 834.127 92.2726 830.748 92.5219C826.288 92.8542 823.157 96.8471 823.157 99.8268V106.696C817.103 97.1749 807.365 90.5485 800.89 88.6282C783.442 83.4443 765.337 88.1135 751.503 107.27C742.482 119.761 735.179 133.61 731.42 164.265C730.334 173.123 729.854 181.421 729.917 189.173C726.319 211.192 710.433 236.569 697.434 236.569C689.828 236.569 682.585 221.807 682.585 190.341C682.585 148.427 685.179 88.7528 685.615 83.0012C685.615 83.0012 702.037 82.7219 705.217 82.685C713.41 82.595 720.828 82.7888 731.736 82.2303C737.208 81.951 742.48 62.2958 736.832 59.8631C734.275 58.7622 716.182 57.7974 709.012 57.6451C702.982 57.5089 686.192 56.2649 686.192 56.2649C686.192 56.2649 687.698 16.6543 688.05 12.4698C688.348 8.98004 683.84 7.1867 681.254 6.09499C674.966 3.43613 669.344 2.15979 662.677 0.784195C653.467 -1.11763 649.286 0.74265 648.472 8.52536C647.243 20.331 646.606 54.9193 646.606 54.9193C639.845 54.9193 616.759 53.5968 609.998 53.5968C603.714 53.5968 596.936 80.6354 605.621 80.9678C615.613 81.3556 633.026 81.6902 644.57 82.0387C644.57 82.0387 644.056 142.699 644.056 161.426C644.056 163.418 644.063 165.336 644.076 167.198C637.723 200.342 615.343 218.245 615.343 218.245C620.149 196.319 610.332 179.853 592.652 165.915C586.135 160.777 573.276 151.056 558.887 140.4C558.887 140.4 567.221 132.179 574.612 115.637C579.849 103.921 580.075 90.5139 567.218 87.5573C545.982 82.6711 528.468 98.2804 523.245 114.947C519.197 127.86 521.356 137.439 529.284 147.393C529.863 148.12 530.49 148.861 531.138 149.609C526.344 158.857 519.758 171.309 514.179 180.966C498.694 207.776 487 228.982 478.159 228.982C471.093 228.982 471.19 207.453 471.19 187.295C471.19 169.917 472.472 143.79 473.496 116.74C473.835 107.794 469.364 102.698 461.872 98.0819C457.319 95.2776 447.604 89.7637 441.98 89.7637C433.558 89.7637 409.259 90.9108 386.3 157.38C383.406 165.758 377.722 181.024 377.722 181.024L378.211 101.092C378.211 99.2175 377.212 97.4034 374.929 96.1639C371.06 94.0636 360.726 89.7637 351.539 89.7637C347.162 89.7637 344.976 91.8017 344.976 95.8639L344.173 220.92C344.173 230.423 344.42 241.508 345.361 246.355C346.295 251.211 347.81 255.158 349.687 257.507C351.56 259.852 353.727 261.641 357.302 262.38C360.627 263.065 378.838 265.406 379.786 258.44C380.92 250.092 380.962 241.063 390.525 207.388C405.413 154.961 424.823 129.381 433.95 120.297C435.543 118.709 437.365 118.614 437.278 121.213C436.89 132.705 435.52 161.428 434.596 185.829C432.124 251.128 443.993 263.231 460.954 263.231C473.93 263.231 492.221 250.325 511.83 217.661C524.052 197.305 535.921 177.345 544.451 162.959C550.394 168.466 557.06 174.39 563.727 180.721C579.214 195.433 584.299 209.413 580.926 222.674C578.345 232.814 568.627 243.262 551.332 233.107C546.291 230.146 544.137 227.856 539.071 224.514C536.347 222.721 532.192 222.183 529.699 224.064C523.221 228.95 519.518 235.168 517.403 242.863C515.346 250.35 522.839 254.308 530.605 257.771C537.293 260.75 551.666 263.451 560.833 263.758C596.547 264.953 625.16 246.498 645.075 198.892C648.642 240.006 663.814 263.271 690.179 263.271C707.804 263.271 725.475 240.469 733.203 218.038C735.421 227.182 738.705 235.131 742.946 241.857C763.26 274.07 802.668 267.137 822.463 239.784C828.581 231.332 829.515 228.292 829.515 228.292C832.402 254.122 853.184 263.148 865.083 263.148C878.41 263.148 892.17 256.843 901.814 235.113C902.919 237.431 904.158 239.684 905.524 241.859C925.838 274.072 965.246 267.139 985.041 239.786C985.973 238.501 986.784 237.337 987.49 236.292L988.071 253.261L969.849 269.989C939.301 298.011 916.093 319.266 914.386 344.017C912.216 375.578 937.774 387.307 957.138 388.844C977.666 390.476 995.277 379.116 1006.09 363.216C1015.6 349.224 1021.82 319.107 1021.37 289.358C1021.19 277.447 1020.89 262.301 1020.65 246.066C1031.37 233.603 1043.46 217.848 1054.58 199.412C1066.7 179.316 1079.7 152.332 1086.35 131.332C1086.35 131.332 1097.64 131.428 1109.68 130.639C1113.54 130.388 1114.64 131.172 1113.93 134.002C1113.07 137.416 1098.71 192.852 1111.82 229.781C1120.79 255.061 1141.01 263.194 1153 263.194C1167.03 263.194 1180.45 252.587 1187.65 236.834C1188.52 238.591 1189.43 240.289 1190.41 241.859C1210.73 274.072 1250 267.1 1269.93 239.786C1274.43 233.624 1276.98 228.295 1276.98 228.295C1281.26 255.026 1302.03 263.284 1313.93 263.284C1326.32 263.284 1338.08 258.2 1347.62 235.602C1348.02 245.554 1348.65 253.688 1349.64 256.252C1350.24 257.821 1353.76 259.79 1356.33 260.741C1367.66 264.946 1379.22 262.959 1383.5 262.094C1386.47 261.493 1388.78 259.114 1389.09 252.97C1389.92 236.837 1389.41 209.731 1394.3 189.584C1402.5 155.776 1410.15 142.659 1413.78 136.169C1415.81 132.532 1418.11 131.932 1418.19 135.781C1418.36 143.571 1418.75 166.446 1421.93 197.18C1424.26 219.783 1427.37 233.144 1429.77 237.372C1436.61 249.462 1445.05 250.034 1451.93 250.034C1456.3 250.034 1465.45 248.827 1464.63 241.132C1464.23 237.381 1464.93 214.202 1473.02 180.894C1478.3 159.143 1487.11 139.493 1490.28 132.306C1491.45 129.656 1492 131.745 1491.98 132.151C1491.31 147.13 1489.81 196.125 1495.91 222.921C1504.17 259.225 1528.08 263.284 1536.41 263.284C1554.19 263.284 1568.74 249.743 1573.64 214.112C1574.83 205.528 1573.09 198.906 1567.85 198.906ZM822.792 176.878C821.773 195.735 818.097 211.499 812.198 222.949C801.526 243.673 780.41 250.244 771.1 220.3C764.387 198.708 766.673 169.264 769.465 153.362C773.609 129.757 783.986 113.024 800.186 114.61C816.827 116.239 824.916 137.642 822.792 176.878ZM985.371 177.151C984.421 194.957 979.808 212.845 974.777 222.951C964.39 243.818 942.677 250.341 933.678 220.302C927.526 199.776 928.999 173.213 932.043 156.478C935.994 134.759 945.568 114.612 962.765 114.612C979.483 114.61 987.727 132.968 985.371 177.151ZM989.614 298.634C989.388 331.118 984.282 359.599 973.329 367.871C957.793 379.6 936.911 370.802 941.235 347.099C945.061 326.123 963.154 304.702 989.66 278.529C989.658 278.529 989.713 284.498 989.614 298.634ZM1270.26 177.34C1269.36 196.889 1265.04 212.171 1259.67 222.949C1249.28 243.816 1227.72 250.295 1218.57 220.3C1213.58 203.949 1213.35 176.641 1216.94 153.823C1220.59 130.581 1230.78 113.024 1247.66 114.61C1264.3 116.172 1272.1 137.642 1270.26 177.34Z" fill="url(#paint0_linear_223_122)"/>
<defs>
<linearGradient id="paint0_linear_223_122" x1="204" y1="194.5" x2="1574" y2="194.5" gradientUnits="userSpaceOnUse">
<stop stop-color="#EF8C01"/>
<stop offset="0.5" stop-color="#EF253E"/>
<stop offset="1" stop-color="#7314A1"/>
</linearGradient>
</defs>
</svg>
