<svg width="1370" height="389" viewBox="0 0 1370 389" fill="none" xmlns="http://www.w3.org/2000/svg">
<path d="M70.5126 1.35197C42.4711 13.1091 11.6439 46.2826 1.90782 87.9542C-10.4226 140.737 40.8891 163.058 45.0977 155.751C50.0511 147.149 35.9035 144.24 32.991 116.853C29.2275 81.4802 45.658 41.955 66.3386 24.6124C70.1828 21.3904 69.9983 25.8749 69.9983 34.17C69.9983 49.0061 69.1797 182.166 69.1797 209.96C69.1797 247.564 67.6277 259.439 64.8397 271.171C62.0148 283.062 57.4765 291.096 60.9148 294.194C64.759 297.656 81.1688 289.421 90.6697 276.149C102.062 260.233 106.049 241.118 106.766 220.36C107.631 195.336 107.594 155.628 107.631 132.979C107.665 112.207 107.979 51.381 107.266 14.8148C107.093 5.84573 82.2411 -3.56415 70.5126 1.35197ZM1363.85 198.906C1359.78 198.906 1357.93 203.102 1356.39 210.167C1351.06 234.732 1345.47 240.276 1338.25 240.276C1330.18 240.276 1322.93 228.112 1321.07 203.767C1319.6 184.624 1319.84 149.378 1321.71 114.321C1322.09 107.118 1320.11 99.9907 1300.8 92.9719C1292.5 89.9507 1280.42 85.5077 1274.41 100.032C1257.43 141.067 1250.78 173.647 1249.22 186.877C1249.14 187.562 1248.3 187.701 1248.15 186.101C1247.15 175.503 1244.92 156.24 1244.65 115.773C1244.59 107.877 1242.92 101.156 1234.21 95.6539C1228.57 92.081 1211.41 85.7685 1205.23 93.2812C1199.88 99.4252 1193.68 115.96 1187.24 135.56C1182 151.488 1178.36 162.264 1178.36 162.264C1178.36 162.264 1178.42 119.281 1178.49 102.977C1178.52 96.8263 1174.3 94.7745 1173.03 94.4052C1167.31 92.7434 1156.04 89.9668 1151.26 89.9668C1145.35 89.9668 1143.9 93.2697 1143.9 98.0819C1143.9 98.712 1142.97 154.673 1142.97 193.803C1142.97 195.502 1142.97 197.358 1142.98 199.329C1139.72 217.313 1129.13 241.727 1117.61 241.727C1106.08 241.727 1100.64 231.521 1100.64 184.871C1100.64 157.659 1101.46 145.824 1101.86 126.143C1102.09 114.806 1102.54 106.098 1102.51 104.124C1102.43 98.0658 1091.96 95.0122 1087.09 93.8813C1082.2 92.7457 1077.95 92.3026 1074.63 92.4918C1069.93 92.7573 1066.6 95.8431 1066.6 100.088C1066.6 102.363 1066.63 106.689 1066.63 106.689C1060.57 97.1679 1050.84 90.5415 1044.36 88.6213C1026.91 83.4374 1008.71 88.0327 994.975 107.263C984.06 122.545 977.481 139.855 974.891 164.722C972.998 182.9 973.616 201.337 976.981 216.927C972.915 234.519 965.367 241.727 957.103 241.727C945.104 241.727 936.406 222.128 937.416 188.227C938.082 165.929 942.54 150.283 947.413 127.646C949.49 117.993 947.802 112.943 943.568 108.101C939.685 103.658 931.413 101.392 919.516 104.182C911.044 106.169 898.928 108.311 887.848 109.954C887.848 109.954 888.516 107.284 889.065 102.576C891.948 77.8843 865.14 79.8876 856.587 87.7742C851.481 92.4826 848.006 98.0358 846.687 108.02C844.595 123.863 857.505 131.338 857.505 131.338C853.268 150.749 842.884 176.101 832.166 194.431C826.424 204.252 822.028 211.529 816.36 219.266C816.339 216.39 816.324 213.514 816.314 210.638C816.183 169.834 816.727 137.72 816.964 126.145C817.2 114.808 817.654 106.333 817.626 104.36C817.564 99.9283 814.979 98.2527 809.601 96.1362C804.846 94.2621 799.224 92.965 793.392 92.5126C786.033 91.9402 781.597 95.8454 781.714 100.466C781.737 101.339 781.737 106.696 781.737 106.696C775.684 97.1749 765.946 90.5485 759.47 88.6282C742.023 83.4443 723.816 88.0396 710.084 107.27C699.172 122.552 692.025 143.996 690.001 164.537C688.114 183.682 688.463 199.952 691.034 213.657C688.26 227.381 680.283 241.732 671.264 241.732C659.734 241.732 653.173 231.526 653.173 184.876C653.173 157.664 653.99 145.831 654.388 126.148C654.624 114.811 655.073 106.102 655.046 104.129C654.96 98.0704 644.493 95.0168 639.623 93.8859C634.527 92.7042 630.127 92.2726 626.748 92.5219C622.288 92.8542 619.157 96.8471 619.157 99.8268V106.696C613.103 97.1749 603.365 90.5485 596.89 88.6282C579.442 83.4443 561.337 88.1135 547.503 107.27C538.482 119.761 531.179 133.61 527.42 164.265C526.334 173.123 525.854 181.421 525.917 189.173C522.319 211.192 506.433 236.569 493.434 236.569C485.828 236.569 478.585 221.807 478.585 190.341C478.585 148.427 481.179 88.7528 481.615 83.0012C481.615 83.0012 498.037 82.7219 501.217 82.685C509.41 82.595 516.828 82.7888 527.736 82.2303C533.208 81.951 538.48 62.2958 532.832 59.8631C530.275 58.7622 512.182 57.7974 505.012 57.6451C498.982 57.5089 482.192 56.2649 482.192 56.2649C482.192 56.2649 483.698 16.6543 484.05 12.4698C484.348 8.98004 479.84 7.1867 477.254 6.09499C470.966 3.43613 465.344 2.15979 458.677 0.784195C449.467 -1.11763 445.286 0.74265 444.472 8.52536C443.243 20.331 442.606 54.9193 442.606 54.9193C435.845 54.9193 412.759 53.5968 405.998 53.5968C399.714 53.5968 392.936 80.6354 401.621 80.9678C411.613 81.3556 429.026 81.6902 440.57 82.0387C440.57 82.0387 440.056 142.699 440.056 161.426C440.056 163.418 440.063 165.336 440.076 167.198C433.723 200.342 411.343 218.245 411.343 218.245C416.149 196.319 406.332 179.853 388.652 165.915C382.135 160.778 369.276 151.056 354.887 140.4C354.887 140.4 363.221 132.179 370.612 115.637C375.849 103.921 376.075 90.5139 363.218 87.5573C341.982 82.6711 324.468 98.2804 319.245 114.947C315.197 127.86 317.356 137.439 325.284 147.393C325.863 148.12 326.49 148.861 327.138 149.609C322.344 158.857 315.758 171.309 310.179 180.966C294.694 207.776 283 228.982 274.159 228.982C267.093 228.982 267.19 207.453 267.19 187.295C267.19 169.917 268.472 143.79 269.496 116.74C269.835 107.794 265.364 102.698 257.872 98.0819C253.319 95.2776 243.604 89.7637 237.98 89.7637C229.558 89.7637 205.259 90.9108 182.3 157.38C179.406 165.758 173.722 181.024 173.722 181.024L174.211 101.092C174.211 99.2175 173.212 97.4034 170.929 96.1639C167.06 94.0636 156.726 89.7637 147.539 89.7637C143.162 89.7637 140.976 91.8017 140.976 95.8639L140.173 220.92C140.173 230.423 140.42 241.508 141.361 246.355C142.295 251.211 143.81 255.158 145.687 257.507C147.56 259.852 149.727 261.641 153.302 262.38C156.627 263.065 174.838 265.406 175.786 258.44C176.92 250.092 176.962 241.063 186.525 207.388C201.413 154.961 220.823 129.381 229.95 120.297C231.543 118.709 233.365 118.614 233.278 121.213C232.89 132.705 231.52 161.428 230.596 185.829C228.124 251.128 239.993 263.231 256.954 263.231C269.93 263.231 288.221 250.325 307.83 217.661C320.052 197.305 331.921 177.345 340.451 162.959C346.394 168.466 353.06 174.39 359.727 180.721C375.214 195.433 380.299 209.413 376.926 222.674C374.345 232.814 364.627 243.262 347.332 233.107C342.291 230.146 340.137 227.856 335.071 224.514C332.347 222.721 328.192 222.183 325.699 224.064C319.221 228.95 315.518 235.168 313.403 242.863C311.346 250.35 318.839 254.308 326.605 257.771C333.293 260.75 347.666 263.451 356.833 263.758C392.547 264.953 421.16 246.498 441.075 198.892C444.642 240.006 459.814 263.271 486.179 263.271C503.804 263.271 521.475 240.469 529.203 218.038C531.421 227.182 534.705 235.131 538.946 241.857C559.26 274.07 598.668 267.137 618.463 239.784C624.581 231.332 625.515 228.292 625.515 228.292C628.402 254.122 649.184 263.148 661.083 263.148C674.41 263.148 688.17 256.843 697.814 235.113C698.919 237.431 700.158 239.684 701.524 241.859C721.838 274.072 761.246 267.139 781.041 239.786C781.973 238.501 782.784 237.337 783.49 236.292L784.071 253.261L765.849 269.989C735.301 298.011 712.093 319.266 710.386 344.017C708.216 375.578 733.774 387.307 753.138 388.844C773.666 390.476 791.277 379.116 802.088 363.216C811.601 349.224 817.825 319.107 817.37 289.358C817.188 277.447 816.888 262.301 816.651 246.066C827.374 233.603 839.458 217.848 850.58 199.412C862.705 179.316 875.697 152.332 882.348 131.332C882.348 131.332 893.636 131.428 905.682 130.639C909.536 130.388 910.64 131.172 909.93 134.002C909.07 137.416 894.71 192.852 907.816 229.781C916.786 255.061 937.008 263.194 948.997 263.194C963.031 263.194 976.455 252.587 983.65 236.834C984.517 238.591 985.425 240.289 986.412 241.859C1006.73 274.072 1046 267.1 1065.93 239.786C1070.43 233.624 1072.98 228.295 1072.98 228.295C1077.26 255.026 1098.03 263.284 1109.93 263.284C1122.32 263.284 1134.08 258.2 1143.62 235.602C1144.02 245.554 1144.65 253.688 1145.64 256.252C1146.24 257.821 1149.76 259.79 1152.33 260.741C1163.66 264.946 1175.22 262.959 1179.5 262.094C1182.47 261.493 1184.78 259.114 1185.09 252.97C1185.92 236.837 1185.41 209.731 1190.3 189.584C1198.5 155.776 1206.15 142.659 1209.78 136.169C1211.81 132.532 1214.11 131.932 1214.19 135.781C1214.36 143.571 1214.75 166.446 1217.93 197.18C1220.26 219.783 1223.37 233.144 1225.77 237.372C1232.61 249.462 1241.05 250.034 1247.93 250.034C1252.3 250.034 1261.45 248.827 1260.63 241.132C1260.23 237.381 1260.93 214.202 1269.02 180.894C1274.3 159.143 1283.11 139.493 1286.28 132.306C1287.45 129.656 1288 131.745 1287.98 132.151C1287.31 147.13 1285.81 196.125 1291.91 222.921C1300.17 259.225 1324.08 263.284 1332.41 263.284C1350.19 263.284 1364.74 249.743 1369.64 214.112C1370.83 205.528 1369.09 198.906 1363.85 198.906ZM618.792 176.878C617.773 195.735 614.097 211.499 608.198 222.949C597.526 243.673 576.41 250.244 567.1 220.3C560.387 198.708 562.673 169.264 565.465 153.362C569.609 129.757 579.986 113.024 596.186 114.61C612.827 116.239 620.916 137.642 618.792 176.878ZM781.371 177.151C780.421 194.957 775.808 212.845 770.777 222.951C760.39 243.818 738.677 250.341 729.678 220.302C723.526 199.776 724.999 173.213 728.043 156.478C731.994 134.759 741.568 114.612 758.765 114.612C775.483 114.61 783.727 132.968 781.371 177.151ZM785.614 298.634C785.388 331.118 780.282 359.599 769.329 367.871C753.793 379.6 732.911 370.802 737.235 347.099C741.061 326.123 759.154 304.702 785.66 278.529C785.658 278.529 785.713 284.498 785.614 298.634ZM1066.26 177.34C1065.36 196.889 1061.04 212.171 1055.67 222.949C1045.28 243.816 1023.72 250.295 1014.57 220.3C1009.58 203.949 1009.35 176.641 1012.94 153.823C1016.59 130.581 1026.78 113.024 1043.66 114.61C1060.3 116.172 1068.1 137.642 1066.26 177.34Z" fill="url(#paint0_linear_223_122)"/>
<defs>
<linearGradient id="paint0_linear_223_122" x1="0" y1="194.5" x2="1370" y2="194.5" gradientUnits="userSpaceOnUse">
<stop stop-color="#EF8C01"/>
<stop offset="0.5" stop-color="#EF253E"/>
<stop offset="1" stop-color="#7314A1"/>
</linearGradient>
</defs>
</svg>
