<svg width="34" height="22" viewBox="0 0 34 22" fill="none" xmlns="http://www.w3.org/2000/svg">
<mask id="mask0_139_188" style="mask-type:alpha" maskUnits="userSpaceOnUse" x="8" y="2" width="18" height="18">
<rect x="8.5" y="2.5" width="17" height="17" fill="#D9D9D9"/>
</mask>
<g mask="url(#mask0_139_188)">
<path d="M17 19.0041L14.6271 16.6666H11.3333V13.3729L8.99585 11L11.3333 8.62704V5.33329H14.6271L17 2.99579L19.3729 5.33329H22.6667V8.62704L25.0042 11L22.6667 13.3729V16.6666H19.3729L17 19.0041ZM19.5057 13.5057C20.1964 12.8151 20.5417 11.9798 20.5417 11C20.5417 10.0201 20.1964 9.18485 19.5057 8.49423C18.8151 7.8036 17.9799 7.45829 17 7.45829C16.0202 7.45829 15.1849 7.8036 14.4943 8.49423C13.8037 9.18485 13.4583 10.0201 13.4583 11C13.4583 11.9798 13.8037 12.8151 14.4943 13.5057C15.1849 14.1963 16.0202 14.5416 17 14.5416C17.9799 14.5416 18.8151 14.1963 19.5057 13.5057ZM15.4948 12.5052C15.0816 12.092 14.875 11.5902 14.875 11C14.875 10.4097 15.0816 9.90794 15.4948 9.49475C15.908 9.08155 16.4097 8.87496 17 8.87496C17.5903 8.87496 18.092 9.08155 18.5052 9.49475C18.9184 9.90794 19.125 10.4097 19.125 11C19.125 11.5902 18.9184 12.092 18.5052 12.5052C18.092 12.9184 17.5903 13.125 17 13.125C16.4097 13.125 15.908 12.9184 15.4948 12.5052ZM17 17.0208L18.7708 15.25H21.25V12.7708L23.0209 11L21.25 9.22912V6.74996H18.7708L17 4.97912L15.2292 6.74996H12.75V9.22912L10.9792 11L12.75 12.7708V15.25H15.2292L17 17.0208Z" fill="white"/>
</g>
</svg>
