<svg width="40" height="40" viewBox="0 0 40 40" fill="none" xmlns="http://www.w3.org/2000/svg">
<g clip-path="url(#clip0_123_71)">
<path fill-rule="evenodd" clip-rule="evenodd" d="M2.22908 2.26776C0.856011 3.64301 -0.0274839 5.62448 0.000652873 8.1336V39.9776L18.0813 40C20.0284 40 20.3942 37.5975 19.173 36.6994L7.28244 24.8442V29.9804L13.6864 36.3626L3.64155 36.3514V14.5832L26.8431 37.7323C31.5025 42.38 40.0448 39.579 39.9998 31.8664V0.0168496L21.9192 9.81957e-06C19.9721 -0.00560343 19.6063 2.39687 20.8275 3.29499L32.718 15.1558V10.0197L26.3197 3.63739L36.3646 3.64862V25.4112L13.1574 2.26776C9.90478 -0.971082 5.05401 -0.499569 2.22908 2.26776ZM29.426 35.1614L4.82329 10.6259C3.20261 9.00927 3.22512 6.41595 4.82329 4.85547L4.81203 4.8274C6.33704 3.33428 8.93688 3.18833 10.5913 4.83863L35.1884 29.3797C36.8091 30.9964 36.781 33.5897 35.1941 35.1502L35.211 35.1782C33.6803 36.6657 31.0805 36.8173 29.426 35.1614Z" fill="white"/>
</g>
<defs>
<clipPath id="clip0_123_71">
<rect width="40" height="40" fill="white"/>
</clipPath>
</defs>
</svg>
