<svg width="72" height="72" viewBox="0 0 72 72" fill="none" xmlns="http://www.w3.org/2000/svg">
<mask id="mask0_206_104" style="mask-type:alpha" maskUnits="userSpaceOnUse" x="0" y="0" width="72" height="72">
<rect width="71.3322" height="71.3322" fill="#D9D9D9"/>
</mask>
<g mask="url(#mask0_206_104)">
<path d="M33.9801 61.1296V38.0841H32.8937C29.9141 38.0841 27.1064 37.5202 24.4706 36.3922C21.8348 35.2643 19.4833 33.6524 17.4161 31.5565C15.3698 29.4606 13.8178 27.041 12.7602 24.2977C11.7031 21.5544 11.1746 18.6947 11.1746 15.7185V11.2603H15.5399C18.4155 11.2603 21.1873 11.8299 23.8553 12.9693C26.5234 14.1081 28.9018 15.7237 30.9908 17.8161C32.6255 19.4815 33.9563 21.3639 34.9832 23.4633C36.0101 25.5631 36.7083 27.7771 37.0778 30.1053C37.4949 29.344 37.9744 28.6128 38.5163 27.9119C39.0588 27.2104 39.6423 26.5315 40.2669 25.8752C42.3603 23.7828 44.7421 22.1671 47.4121 21.0283C50.0821 19.889 52.8858 19.3193 55.8233 19.3193H60.1865V23.7776C60.1865 26.7552 59.6269 29.6164 58.5079 32.3612C57.3889 35.106 55.802 37.5254 53.7472 39.6193C51.6538 41.7127 49.2823 43.3109 46.6326 44.4141C43.9834 45.5173 41.2119 46.0689 38.3179 46.0689H37.352V61.1296H33.9801ZM34.0544 34.6372C34.0544 31.7873 33.5734 29.124 32.6114 26.6472C31.6489 24.1704 30.3008 22.047 28.567 20.2771C26.8525 18.4878 24.7797 17.0998 22.3485 16.1131C19.9172 15.1258 17.3166 14.6322 14.5465 14.6322C14.5465 17.5628 15 20.2711 15.907 22.7574C16.814 25.2436 18.1344 27.3746 19.8682 29.1505C21.8343 31.2464 23.9851 32.6849 26.3208 33.4661C28.6569 34.2468 31.2348 34.6372 34.0544 34.6372ZM37.352 42.6962C40.1528 42.6962 42.7688 42.2229 45.2 41.2762C47.6308 40.3291 49.7036 38.9612 51.4185 37.1724C53.1523 35.4213 54.4851 33.3026 55.4169 30.8164C56.3481 28.3302 56.8138 25.6221 56.8138 22.692C53.9942 22.692 51.3688 23.1854 48.9375 24.1721C46.5068 25.1589 44.4339 26.5345 42.719 28.299C40.7034 30.3755 39.305 32.594 38.5238 34.9544C37.7426 37.3153 37.352 39.8959 37.352 42.6962Z" fill="#1F4A44"/>
</g>
</svg>
