<svg width="72" height="72" viewBox="0 0 72 72" fill="none" xmlns="http://www.w3.org/2000/svg">
<mask id="mask0_206_95" style="mask-type:alpha" maskUnits="userSpaceOnUse" x="0" y="0" width="72" height="72">
<rect width="71.3322" height="71.3322" fill="#D9D9D9"/>
</mask>
<g mask="url(#mask0_206_95)">
<path d="M47.4292 36.8493L35.7574 25.5892C34.4031 24.2983 33.2643 22.8607 32.3409 21.2765C31.4181 19.6929 30.9566 17.9678 30.9566 16.1012C30.9566 13.7299 31.7527 11.692 33.3448 9.98748C34.9374 8.28293 36.9057 7.43066 39.2497 7.43066C40.9152 7.43066 42.4317 7.88789 43.7994 8.80232C45.1676 9.71676 46.3775 10.8276 47.4292 12.1349C48.4808 10.8276 49.6858 9.71676 51.0441 8.80232C52.4024 7.88789 53.9236 7.43066 55.6079 7.43066C57.9519 7.43066 59.9202 8.28293 61.5128 9.98748C63.1054 11.692 63.9017 13.7299 63.9017 16.1012C63.9017 17.9628 63.4314 19.6835 62.4907 21.2632C61.55 22.8434 60.4104 24.2854 59.0719 25.5892L47.4292 36.8493ZM47.4292 32.2253L56.5263 23.3162C57.5546 22.3205 58.479 21.2327 59.2993 20.0527C60.1191 18.8733 60.529 17.5561 60.529 16.1012C60.529 14.6573 60.0627 13.4132 59.1299 12.3689C58.1966 11.3252 57.0226 10.8033 55.6079 10.8033C54.4378 10.8033 53.3814 11.1471 52.4388 11.8347C51.4956 12.5222 50.6545 13.3386 49.9154 14.2838L47.4292 17.3986L44.914 14.2838C44.1937 13.3386 43.3622 12.5222 42.4196 11.8347C41.4764 11.1471 40.4198 10.8033 39.2497 10.8033C37.8355 10.8033 36.6617 11.3252 35.7285 12.3689C34.7952 13.4132 34.3286 14.6573 34.3286 16.1012C34.3286 17.5561 34.7338 18.8733 35.5442 20.0527C36.3551 21.2327 37.2874 22.3237 38.341 23.3259L47.4292 32.2253ZM18.576 56.2999L41.7018 63.1589L59.9866 57.4486C60.0248 56.3628 59.6951 55.514 58.9976 54.9022C58.3002 54.291 57.4848 53.9853 56.5515 53.9853H41.6186C40.7329 53.9853 39.8442 53.9281 38.9525 53.8137C38.0609 53.6993 37.1769 53.4897 36.3006 53.1851L29.4245 51.0875L30.5792 47.6412L37.3067 50.019C37.9655 50.2741 38.6798 50.4415 39.4496 50.5213C40.2194 50.6015 41.0769 50.6322 42.022 50.6134H45.0685C45.0685 49.5157 44.7599 48.602 44.1427 47.8723C43.5255 47.1426 42.7594 46.5987 41.8445 46.2406L25.4752 40.0733C25.3989 40.054 25.3417 40.0396 25.3036 40.0302C25.2654 40.0208 25.2179 40.0161 25.1609 40.0161H18.576V56.2999ZM5.05859 63.902V36.6442H25.0524C25.3199 36.6442 25.5772 36.6707 25.8244 36.7237C26.0716 36.7772 26.3171 36.8401 26.5608 36.9124L42.959 43.0343C44.4986 43.5941 45.82 44.5276 46.9232 45.8349C48.0263 47.1416 48.5779 48.7345 48.5779 50.6134H56.5515C58.7187 50.6134 60.4854 51.3772 61.8516 52.9049C63.2184 54.4331 63.9017 56.2412 63.9017 58.3292V59.975L42.0161 66.6795L18.576 59.8665V63.902H5.05859ZM8.43053 60.5293H15.1298V40.0161H8.43053V60.5293Z" fill="#1F4A44"/>
</g>
</svg>
