<svg width="42" height="42" viewBox="0 0 42 42" fill="none" xmlns="http://www.w3.org/2000/svg">
<g clip-path="url(#clip0_245_194)">
<path d="M20.917 0.464844C32.2122 0.464988 41.3691 9.62174 41.3691 20.917C41.369 32.2121 32.2121 41.369 20.917 41.3691C9.62174 41.3691 0.464988 32.2122 0.464844 20.917C0.464844 9.62165 9.62165 0.464844 20.917 0.464844Z" fill="white" stroke="#7BB5AD" stroke-width="0.929408"/>
<path fill-rule="evenodd" clip-rule="evenodd" d="M29.9043 12.0858C27.542 9.73185 24.4002 8.43482 21.0526 8.43359C14.1545 8.43359 8.54054 14.0201 8.53812 20.8868C8.53694 23.0819 9.11358 25.2245 10.2087 27.1128L8.43311 33.5669L15.0672 31.8351C16.8949 32.8276 18.953 33.3501 21.0472 33.3507H21.0526C27.9494 33.3507 33.564 27.7637 33.5664 20.8969C33.5676 17.569 32.2673 14.4405 29.9043 12.0864V12.0858ZM21.0526 31.2475H21.0484C19.1822 31.247 17.3515 30.7477 15.7542 29.8048L15.3744 29.5803L11.4375 30.6079L12.4882 26.7879L12.241 26.3962C11.1999 24.7481 10.6497 22.8431 10.6509 20.8874C10.6533 15.1803 15.3192 10.5368 21.0568 10.5368C23.8349 10.538 26.4464 11.6159 28.4102 13.5728C30.3742 15.5291 31.4549 18.1303 31.4537 20.8958C31.4512 26.6034 26.7854 31.247 21.0526 31.247V31.2475ZM26.7577 23.4952C26.4451 23.3393 24.9079 22.5869 24.621 22.483C24.3342 22.3791 24.126 22.3272 23.9178 22.6388C23.7095 22.9506 23.1101 23.6517 22.9277 23.8588C22.7453 24.0667 22.5629 24.0924 22.2502 23.9365C21.9376 23.7806 20.9301 23.4522 19.7355 22.3922C18.806 21.5669 18.1783 20.5482 17.996 20.2365C17.8136 19.9248 17.9768 19.7564 18.1328 19.6017C18.2732 19.462 18.4454 19.2381 18.602 19.0565C18.7586 18.8749 18.8102 18.7448 18.9146 18.5375C19.0191 18.3297 18.9668 18.1483 18.8889 17.9923C18.8108 17.8365 18.1856 16.3047 17.9245 15.6819C17.6707 15.0753 17.4128 15.1576 17.2214 15.1475C17.0389 15.1385 16.8307 15.1368 16.6219 15.1368C16.4131 15.1368 16.0746 15.2143 15.7878 15.5261C15.501 15.8377 14.6933 16.5908 14.6933 18.1219C14.6933 19.6531 15.8136 21.1335 15.9703 21.3413C16.1268 21.5491 18.1753 24.6919 21.3118 26.0403C22.0576 26.361 22.6402 26.5526 23.0945 26.696C23.8434 26.933 24.525 26.8996 25.0638 26.8195C25.6645 26.73 26.9138 26.0666 27.1742 25.3398C27.4346 24.613 27.4346 23.9896 27.3566 23.86C27.2786 23.7305 27.0698 23.6522 26.7572 23.4964L26.7577 23.4952Z" fill="#2B655D"/>
</g>
<defs>
<clipPath id="clip0_245_194">
<rect width="41.8334" height="41.8334" fill="white"/>
</clipPath>
</defs>
</svg>
