<svg width="42" height="42" viewBox="0 0 42 42" fill="none" xmlns="http://www.w3.org/2000/svg">
<g clip-path="url(#clip0_245_211)">
<path d="M20.917 0.464844C32.2122 0.464988 41.3691 9.62174 41.3691 20.917C41.369 32.2121 32.2121 41.369 20.917 41.3691C9.62174 41.3691 0.464988 32.2122 0.464844 20.917C0.464844 9.62165 9.62165 0.464844 20.917 0.464844Z" fill="white" stroke="#7BB5AD" stroke-width="0.929408"/>
<path d="M26.9837 12.5498H30.1898L23.1503 19.6507L31.3747 29.2832H24.9207L19.8674 23.4296L14.0824 29.2832H10.8762L18.334 21.6883L10.458 12.5498H17.0725L21.6378 17.8971L26.9837 12.5498ZM25.8615 27.6161H27.6388L16.1385 14.1552H14.2287L25.8615 27.6161Z" fill="#2B655D"/>
</g>
<defs>
<clipPath id="clip0_245_211">
<rect width="41.8334" height="41.8334" fill="white"/>
</clipPath>
</defs>
</svg>
