<svg width="42" height="42" viewBox="0 0 42 42" fill="none" xmlns="http://www.w3.org/2000/svg">
<g clip-path="url(#clip0_245_202)">
<path d="M20.917 0.464844C32.2122 0.464988 41.3691 9.62174 41.3691 20.917C41.369 32.2121 32.2121 41.369 20.917 41.3691C9.62174 41.3691 0.464988 32.2122 0.464844 20.917C0.464844 9.62165 9.62165 0.464844 20.917 0.464844Z" fill="white" stroke="#7BB5AD" stroke-width="0.929408"/>
<mask id="mask0_245_202" style="mask-type:alpha" maskUnits="userSpaceOnUse" x="5" y="6" width="32" height="32">
<rect x="5.57764" y="6.97217" width="30.6779" height="30.6779" fill="#D9D9D9"/>
</mask>
<g mask="url(#mask0_245_202)">
<path fill-rule="evenodd" clip-rule="evenodd" d="M20.9656 11.7246C22.3705 11.7246 23.6908 11.7455 24.9229 11.7886C24.9254 11.7891 24.9286 11.7911 24.9311 11.7913C25.9858 11.826 27.0244 11.8755 28.0441 11.9425C28.5631 11.9765 29.0233 12.0181 29.4181 12.0678C29.423 12.0684 29.4284 12.0694 29.4331 12.0705C29.8099 12.1179 30.1479 12.1746 30.4313 12.2462L30.4531 12.2503L30.6791 12.317C31.2014 12.487 31.6759 12.756 32.0899 13.1218C32.0915 13.1233 32.0938 13.1257 32.0954 13.1272L32.2792 13.3002C32.2804 13.3016 32.2821 13.3044 32.2833 13.3056L32.4453 13.4772C32.76 13.8284 33.006 14.2241 33.1793 14.6579L33.261 14.8771L33.2624 14.8825L33.3373 15.1331L33.34 15.1454L33.4108 15.449C33.4335 15.5527 33.4558 15.6598 33.4762 15.7691L33.5851 16.4608L33.6423 16.9538L33.6437 16.9701C33.7106 17.6246 33.7623 18.2579 33.7976 18.8684L33.8466 19.9619V19.9647C33.8578 20.3326 33.8643 20.704 33.8643 21.0772V21.577C33.8642 21.6249 33.859 21.6713 33.8534 21.7132L33.8343 22.5084C33.8256 22.7724 33.8135 23.0363 33.7976 23.2983C33.7623 23.9084 33.7106 24.5413 33.6437 25.1952V25.2102C33.574 25.8869 33.473 26.4923 33.34 27.0145L33.3414 27.0159L33.34 27.0281C33.1548 27.7292 32.7985 28.3458 32.286 28.857C32.2847 28.8584 32.2846 28.8611 32.2833 28.8624C31.7711 29.3719 31.1555 29.7237 30.4571 29.911L30.4435 29.9151H30.4367L30.4354 29.9137C29.8736 30.0579 29.0563 30.1563 28.0441 30.2228C27.0649 30.287 26.0689 30.3339 25.0591 30.3685L25.0605 30.3699C25.0588 30.3701 25.056 30.3701 25.0482 30.3713C25.041 30.3723 25.0274 30.3747 25.0128 30.3754C24.4726 30.3969 23.9584 30.4136 23.4754 30.4244L22.179 30.4407H20.9684L20.9656 30.4394L20.9643 30.4407H19.7564C19.373 30.4407 18.9381 30.4351 18.4559 30.4244L16.9198 30.3754C16.8974 30.3744 16.8613 30.3695 16.8531 30.3685C15.8504 30.334 14.8611 30.2866 13.8885 30.2228C12.8764 30.1563 12.0591 30.0591 11.4973 29.9151L11.4905 29.9137L11.4769 29.9124C10.7791 29.7254 10.1623 29.3711 9.64937 28.8611C9.13405 28.3482 8.77924 27.729 8.594 27.0281L8.59128 27.0159L8.58992 27.0077C8.45821 26.4884 8.35854 25.8855 8.28897 25.2102L8.20045 24.2365C8.17455 23.9185 8.15147 23.6052 8.13372 23.2983L8.09559 22.4485V22.4458C8.08725 22.1975 8.08175 21.9474 8.07789 21.6982L8.07925 21.6968C8.07491 21.6596 8.06844 21.619 8.06836 21.577V21.0745L8.08606 19.9674C8.09696 19.5996 8.11177 19.2317 8.13372 18.8684L8.20045 17.9288C8.22634 17.6104 8.25519 17.2858 8.28897 16.9565C8.35903 16.2762 8.45897 15.6682 8.59264 15.1454L8.594 15.1372L8.67162 14.8785C8.87062 14.2832 9.19867 13.7544 9.64937 13.3056L9.65073 13.3043L9.84683 13.1191C10.3182 12.7037 10.8677 12.4122 11.4809 12.2503L11.4932 12.2475C12.0533 12.1049 12.8714 12.0092 13.8885 11.9425C14.9109 11.8753 15.9524 11.8246 17.0097 11.79C18.2414 11.7469 19.5609 11.7246 20.9656 11.7246ZM18.957 13.9361L18.9584 13.9375C18.312 13.948 17.6872 13.9641 17.086 13.9851H17.0832C16.0483 14.019 15.0308 14.068 14.0329 14.1336C13.0418 14.1985 12.3965 14.2845 12.0434 14.3732L12.042 14.3746C11.7959 14.4396 11.5799 14.5451 11.3883 14.6933L11.2045 14.8553L11.1991 14.8608C10.963 15.0958 10.8051 15.3686 10.7184 15.6955C10.62 16.082 10.537 16.5755 10.4746 17.1812C10.41 17.8108 10.361 18.4167 10.3275 18.9964V18.9992C10.2863 19.6804 10.2649 20.3746 10.2649 21.0772V21.4667L10.2717 21.5579C10.2753 21.8315 10.2818 22.1028 10.2908 22.3695L10.3275 23.1662V23.1689L10.3888 24.0581C10.4132 24.3595 10.4424 24.6677 10.4746 24.9814L10.525 25.4199C10.5788 25.8262 10.6444 26.1726 10.717 26.4603L10.7973 26.704L10.8736 26.8688C10.9578 27.0272 11.0661 27.1722 11.1991 27.3046C11.4374 27.5414 11.7154 27.7008 12.0461 27.7894C12.3974 27.8789 13.0421 27.9666 14.0329 28.0318C15.0041 28.0954 15.9951 28.142 17.0029 28.1761C17.0278 28.177 17.0536 28.1808 17.0724 28.1829C17.5758 28.2026 18.0545 28.2178 18.5049 28.2278C18.9761 28.2384 19.3938 28.2442 19.7564 28.2442H22.1749L23.4277 28.2278L24.8535 28.1829C24.866 28.1816 24.9009 28.177 24.9284 28.1761C25.9372 28.142 26.9291 28.0954 27.9011 28.0318C28.8941 27.9664 29.5375 27.8791 29.8879 27.7894L30.1249 27.709C30.3528 27.6157 30.5541 27.4818 30.7336 27.3032C30.9707 27.0671 31.1281 26.794 31.2143 26.4684C31.3121 26.0829 31.3956 25.5908 31.458 24.9841C31.5224 24.3575 31.5716 23.7546 31.6051 23.1771L31.6038 23.1648C31.6354 22.6431 31.6537 22.1069 31.6609 21.5579V21.5497L31.6678 21.4463V21.0772C31.6677 20.3759 31.6464 19.6817 31.6051 18.9992L31.6038 18.991V18.9883C31.5703 18.4117 31.5222 17.8098 31.458 17.1839L31.4063 16.7427C31.3522 16.3344 31.2861 15.9862 31.2129 15.6982L31.1353 15.4613C31.0436 15.2356 30.9105 15.0371 30.7336 14.8608C30.6969 14.8243 30.667 14.7967 30.6423 14.775C30.64 14.7732 30.6365 14.7713 30.6342 14.7695C30.422 14.5821 30.1792 14.4506 29.892 14.3746L29.8907 14.3732C29.7272 14.3321 29.4854 14.2895 29.1539 14.248H29.143C28.8052 14.2055 28.3919 14.1658 27.9011 14.1336C26.9029 14.068 25.8836 14.0191 24.848 13.9851H24.8453C23.6426 13.9431 22.3485 13.9211 20.9656 13.9211L18.957 13.9361Z" fill="#2B655D"/>
</g>
<path d="M18.2964 18.0828C18.2968 17.4437 18.9885 17.0445 19.5422 17.3638L24.1396 20.0177C24.6935 20.3375 24.6934 21.1371 24.1396 21.4569L19.5422 24.1108C18.9883 24.4304 18.2964 24.0313 18.2964 23.3918V18.0828Z" fill="#2B655D"/>
</g>
<defs>
<clipPath id="clip0_245_202">
<rect width="41.8334" height="41.8334" fill="white"/>
</clipPath>
</defs>
</svg>
